<?xml version="1.0" encoding="utf-8"?>
<?xml-stylesheet type="text/xsl" href="rss1.xsl"?>
<rss version="2.0" xmlns:atom="http://www.w3.org/2005/Atom" xmlns:content="http://purl.org/rss/1.0/modules/content/" xmlns:dc="http://purl.org/dc/elements/1.1/" xmlns:media="http://search.yahoo.com/mrss/">
<channel>
 <title>Getty</title>
 <link>http://www.gettyimg.com/</link>
 <atom:link href="http://www.gettyimg.com/" rel="self" type="application/rss+xml" />

 
                <item>
                <title><![CDATA[【HD Live Performances】WEB-RiP - Adele: One Night Only 1080p.AVC.H.264.EAC3 [CC, Chapters]]]></title>
                <link><![CDATA[https://sharemania.us/threads/adele-one-night-only-1080p-avc-h-264-eac3-cc-chapters.240365/]]></link>
                <description><![CDATA[<article>
<blockquote class="messageText SelectQuoteContainer ugc baseHtml">
<span style="font-size: 26px"><b>Adele: One Night Only (2021) 1080p</b></span><br>
<span style="font-size: 22px"><span style="color: #000000"><i>Subtitle: English, Portuguese</i></span></span><br>
<span style="color: #336600"><span style="font-size: 22px"><br>
With Chapters Menu</span></span><br>
<br>
Menu<br>
00:01:17.339 : Hello<br>
00:11:15.299 : Easy on me<br>
00:15:08.382 : Skyfall<br>
00:25:37.369 : I drink wine<br>
00:30:59.646 : Someone like you<br>
00:36:05.023 : When we were young<br>
00:49:53.748 : Make you feel my love<br>
01:00:08.585 : Hold on<br>
01:11:35.623 : Rolling in the deep<br>
01:19:40.285 : Love Is a game<br>
<br>
<span style="font-size: 15px"><i><b><span style="color: rgb(0, 0, 0)"><span style="text-decoration: underline">Instrucions:</span></span></b></i><br>
<span style="color: rgb(51, 102, 0)"><br>
<i>- Download the Torrent file or copy the full magnet link and paste it into your browser. In the latter case, you should be redirected to your preferred torrent client;</i><br>
<br>
<i>- When the download is complete, <b>stay as seed</b>. This is the best way to ensure that the file does not die over time.</i></span></span><br>
<br>
<img src="https://i.imgur.com/of9iZTo.png" class="bbCodeImage LbImage" alt="[​IMG]" data-url="https://i.imgur.com/of9iZTo.png" style=""><br>
<br>
<img src="https://i.imgur.com/PY4FO9d.png" class="bbCodeImage LbImage" alt="[​IMG]" data-url="https://i.imgur.com/PY4FO9d.png" style=""><br>
<br>
<img src="https://i.imgur.com/ONUZ8IT.png" class="bbCodeImage LbImage" alt="[​IMG]" data-url="https://i.imgur.com/ONUZ8IT.png" style=""><br>
<br>
<img src="https://i.imgur.com/0PzbdZi.jpeg" class="bbCodeImage LbImage" alt="[​IMG]" data-url="https://i.imgur.com/0PzbdZi.jpeg" style=""><br>
<br>
<div class="ToggleTriggerAnchor bbCodeSpoilerContainer">
<button type="button" class="button bbCodeSpoilerButton ToggleTrigger Tooltip JsOnly" data-target="> .SpoilerTarget"><span>Spoiler: <span class="SpoilerTitle">MediaInfo</span></span></button>
<div class="SpoilerTarget bbCodeSpoilerText">
<div class="bbCodeBlock bbCodeCode">
<div class="type">Code:</div>
<pre>General
Unique ID                   : 260433887196189352511440845942380891870 (0xC3EDBE000F9E050FC9462C98FDE50EDE)
Complete name               : D:\Downloads\SHOWS\Adele.One.Night.Only.2021.1080p.WEB.H264-AlexVicente.mkv
Format                      : Matroska
Format version              : Version 4
File size                   : 5.67 GiB
Duration                    : 1 h 27 min
Overall bit rate            : 9 236 kb/s
Frame rate                  : 24.000 FPS
Movie name                  : Adele: One Night Only (2021)
Encoded date                : 2024-03-19 06:30:19 UTC
Writing application         : mkvmerge v83.0 ('Circle Of Friends') 64-bit
Writing library             : libebml v1.4.5 + libmatroska v1.7.1 / Lavf58.20.100
Cover                       : Yes
Comment                     : Adele.One.Night.Only.2021.1080p.WEBRip.x264-RARBG
Attachments                 : cover.jpg

Video
ID                          : 1
Format                      : AVC
Format/Info                 : Advanced Video Codec
Format profile              : High@L4
Format settings             : CABAC / 4 Ref Frames
Format settings, CABAC      : Yes
Format settings, Reference  : 4 frames
Codec ID                    : V_MPEG4/ISO/AVC
Duration                    : 1 h 27 min
Bit rate mode               : Constant
Bit rate                    : 8 593 kb/s
Nominal bit rate            : 10 000 kb/s
Width                       : 1 920 pixels
Height                      : 1 080 pixels
Display aspect ratio        : 16:9
Frame rate mode             : Constant
Frame rate                  : 24.000 FPS
Color space                 : YUV
Chroma subsampling          : 4:2:0
Bit depth                   : 8 bits
Scan type                   : Progressive
Bits/(Pixel*Frame)          : 0.173
Stream size                 : 5.28 GiB (93%)
Default                     : Yes
Forced                      : No
Color range                 : Limited
Color primaries             : BT.709
Transfer characteristics    : BT.709
Matrix coefficients         : BT.709

Audio
ID                          : 2
Format                      : E-AC-3
Format/Info                 : Enhanced AC-3
Commercial name             : Dolby Digital Plus
Codec ID                    : A_EAC3
Duration                    : 1 h 27 min
Bit rate mode               : Constant
Bit rate                    : 640 kb/s
Channel(s)                  : 6 channels
Channel layout              : L R C LFE Ls Rs
Sampling rate               : 48.0 kHz
Frame rate                  : 31.250 FPS (1536 SPF)
Compression mode            : Lossy
Stream size                 : 402 MiB (7%)
Title                       : English (EAC3)
Language                    : English
Service kind                : Complete Main
Default                     : Yes
Forced                      : No

Text #1
ID                          : 3
Format                      : UTF-8
Codec ID                    : S_TEXT/UTF8
Codec ID/Info               : UTF-8 Plain Text
Duration                    : 1 h 27 min
Bit rate                    : 90 b/s
Frame rate                  : 0.322 FPS
Count of elements           : 1696
Stream size                 : 58.2 KiB (0%)
Title                       : English
Language                    : English
Default                     : No
Forced                      : No

Text #2
ID                          : 4
Format                      : UTF-8
Codec ID                    : S_TEXT/UTF8
Codec ID/Info               : UTF-8 Plain Text
Duration                    : 1 h 26 min
Bit rate                    : 73 b/s
Frame rate                  : 0.248 FPS
Count of elements           : 1289
Stream size                 : 46.7 KiB (0%)
Title                       : Português
Language                    : Portuguese
Default                     : Yes
Forced                      : No

Menu
00:01:17.339                : Hello
00:11:15.299                : Easy on me
00:15:08.382                : Skyfall
00:25:37.369                : I drink wine
00:30:59.646                : Someone like you
00:36:05.023                : When we were young
00:49:53.748                : Make you feel my love
01:00:08.585                : Hold on
01:11:35.623                : Rolling in the deep
01:19:40.285                : Love Is a game
</pre>
</div></div>
</div><br>
<div class="ToggleTriggerAnchor bbCodeSpoilerContainer">
<button type="button" class="button bbCodeSpoilerButton ToggleTrigger Tooltip JsOnly" data-target="> .SpoilerTarget"><span>Spoiler: <span class="SpoilerTitle">Download</span></span></button>
<div class="SpoilerTarget bbCodeSpoilerText">
<div class="bbCodeBlock bbCodeVfcHH HiddenContent">
<div class="attribution type">Hidden Content:</div>
<blockquote>You must reply before you can see the hidden data contained here.</blockquote>
</div></div>
</div>
<div class="messageTextEndMarker">&nbsp;</div>
</blockquote>
</article>]]></description>
                <author><![CDATA[AlexVicente]]></author>
                </item>

                
                <item>
                <title><![CDATA[【Requests】[REQ AUD] - SWV - It's About Time 1992 FLAC/ALAC]]></title>
                <link><![CDATA[https://sharemania.us/threads/swv-its-about-time-1992-flac-alac.240364/]]></link>
                <description><![CDATA[<article>
<blockquote class="messageText SelectQuoteContainer ugc baseHtml">
<a href="https://www.discogs.com/release/347495-SWV-Its-About-Time" target="_blank" class="externalLink" rel="nofollow">https://www.discogs.com/release/347495-SWV-Its-About-Time</a>
<div class="messageTextEndMarker">&nbsp;</div>
</blockquote>
</article>]]></description>
                <author><![CDATA[nijonas]]></author>
                </item>

                </channel></rss>